# This file was created with Minddesk Qubicle 2.0
# Get Qubicle at www.minddesk.com

mtllib chiken.mtl

vn 0.0 0.0 1.0
vn 0.0 0.0 -1.0
vn -1.0 0.0 0.0
vn 1.0 0.0 0.0
vn 0.0 1.0 0.0
vn 0.0 -1.0 0.0

v 7.50000 14.50000 -8.50000
v 7.50000 8.50000 -8.50000
v -5.50000 8.50000 -8.50000
v -5.50000 14.50000 -8.50000
v 3.50000 30.50000 -6.50000
v 3.50000 14.50000 -6.50000
v -5.50000 14.50000 -6.50000
v -5.50000 30.50000 -6.50000
v -5.50000 7.50000 -6.50000
v -9.50000 7.50000 -6.50000
v -9.50000 30.50000 -6.50000
v 0.50000 34.50000 -2.50000
v 0.50000 30.50000 -2.50000
v -6.50000 30.50000 -2.50000
v -6.50000 34.50000 -2.50000
v -9.50000 25.50000 -2.50000
v -9.50000 17.50000 -2.50000
v -11.50000 17.50000 -2.50000
v -11.50000 25.50000 -2.50000
v 0.50000 2.50000 -6.50000
v 0.50000 0.50000 -6.50000
v -6.50000 0.50000 -6.50000
v -6.50000 2.50000 -6.50000
v 0.50000 2.50000 0.50000
v 0.50000 0.50000 0.50000
v -6.50000 0.50000 0.50000
v -6.50000 2.50000 0.50000
v 8.50000 8.50000 -6.50000
v 8.50000 7.50000 -6.50000
v -5.50000 8.50000 -6.50000
v -0.50000 7.50000 -4.50000
v -0.50000 2.50000 -4.50000
v -2.50000 2.50000 -4.50000
v -2.50000 7.50000 -4.50000
v -0.50000 7.50000 2.50000
v -0.50000 2.50000 2.50000
v -2.50000 2.50000 2.50000
v -2.50000 7.50000 2.50000
v 9.50000 16.50000 -5.50000
v 9.50000 7.50000 -5.50000
v 8.50000 7.50000 -5.50000
v 8.50000 16.50000 -5.50000
v -11.50000 21.50000 -2.50000
v -13.50000 21.50000 -2.50000
v -13.50000 25.50000 -2.50000
v -3.50000 2.50000 -2.50000
v -3.50000 0.50000 -2.50000
v -6.50000 0.50000 -2.50000
v -6.50000 2.50000 -2.50000
v -3.50000 2.50000 4.50000
v -3.50000 0.50000 4.50000
v -6.50000 0.50000 4.50000
v -6.50000 2.50000 4.50000
v 7.50000 16.50000 -6.50000
v 7.50000 14.50000 -6.50000
v 3.50000 16.50000 -6.50000
v 8.50000 16.50000 -6.50000
v 7.50000 8.50000 -6.50000
v -9.50000 26.50000 -2.50000
v -13.50000 26.50000 -2.50000
v -5.50000 14.50000 8.50000
v -5.50000 8.50000 8.50000
v 7.50000 8.50000 8.50000
v 7.50000 14.50000 8.50000
v -5.50000 30.50000 6.50000
v -5.50000 14.50000 6.50000
v 3.50000 14.50000 6.50000
v 3.50000 30.50000 6.50000
v -9.50000 30.50000 6.50000
v -9.50000 7.50000 6.50000
v -5.50000 7.50000 6.50000
v -6.50000 34.50000 2.50000
v -6.50000 30.50000 2.50000
v 0.50000 30.50000 2.50000
v 0.50000 34.50000 2.50000
v -11.50000 25.50000 2.50000
v -11.50000 17.50000 2.50000
v -9.50000 17.50000 2.50000
v -9.50000 25.50000 2.50000
v -6.50000 2.50000 -0.50000
v -6.50000 0.50000 -0.50000
v 0.50000 0.50000 -0.50000
v 0.50000 2.50000 -0.50000
v -6.50000 2.50000 6.50000
v -6.50000 0.50000 6.50000
v 0.50000 0.50000 6.50000
v 0.50000 2.50000 6.50000
v -5.50000 8.50000 6.50000
v 8.50000 7.50000 6.50000
v 8.50000 8.50000 6.50000
v -2.50000 7.50000 -2.50000
v -2.50000 2.50000 -2.50000
v -0.50000 2.50000 -2.50000
v -0.50000 7.50000 -2.50000
v -2.50000 7.50000 4.50000
v -2.50000 2.50000 4.50000
v -0.50000 2.50000 4.50000
v -0.50000 7.50000 4.50000
v 8.50000 16.50000 5.50000
v 8.50000 7.50000 5.50000
v 9.50000 7.50000 5.50000
v 9.50000 16.50000 5.50000
v -13.50000 25.50000 2.50000
v -13.50000 21.50000 2.50000
v -11.50000 21.50000 2.50000
v -6.50000 2.50000 -4.50000
v -6.50000 0.50000 -4.50000
v -3.50000 0.50000 -4.50000
v -3.50000 2.50000 -4.50000
v -6.50000 2.50000 2.50000
v -6.50000 0.50000 2.50000
v -3.50000 0.50000 2.50000
v -3.50000 2.50000 2.50000
v 3.50000 16.50000 6.50000
v 7.50000 14.50000 6.50000
v 7.50000 16.50000 6.50000
v 7.50000 8.50000 6.50000
v 8.50000 16.50000 6.50000
v -13.50000 26.50000 2.50000
v -9.50000 26.50000 2.50000
v -9.50000 17.50000 -6.50000
v -9.50000 17.50000 6.50000
v -9.50000 27.50000 -6.50000
v -9.50000 27.50000 -2.50000
v -9.50000 26.50000 6.50000
v -9.50000 27.50000 5.50000
v -9.50000 30.50000 5.50000
v -9.50000 26.50000 5.50000
v -6.50000 30.50000 5.50000
v -6.50000 30.50000 -6.50000
v 3.50000 30.50000 -2.50000
v 0.50000 30.50000 4.50000
v 3.50000 30.50000 4.50000
v 3.50000 30.50000 5.50000
v -0.50000 2.50000 -6.50000
v 0.50000 2.50000 -2.50000
v -0.50000 2.50000 0.50000
v 0.50000 2.50000 4.50000
v -6.50000 30.50000 4.50000
v -0.50000 7.50000 5.50000
v -0.50000 7.50000 -6.50000
v -9.50000 7.50000 5.50000
v -2.50000 7.50000 -6.50000
v -2.50000 7.50000 5.50000
v 0.50000 0.50000 -4.50000
v 0.50000 0.50000 -2.50000
v 0.50000 0.50000 2.50000
v 0.50000 0.50000 4.50000

vt 0.00781 0.37500
vt 0.00781 0.01563
vt 0.03906 0.01563
vt 0.03906 0.37500
vt 0.05469 0.37500
vt 0.05469 0.01563
vt 0.08594 0.01563
vt 0.08594 0.37500
vt 0.10156 0.26563
vt 0.10156 0.01563
vt 0.17188 0.01563
vt 0.17188 0.26563
vt 0.18750 0.26563
vt 0.18750 0.01563
vt 0.25781 0.01563
vt 0.25781 0.26563
vt 0.27344 0.23438
vt 0.27344 0.01563
vt 0.37500 0.01563
vt 0.37500 0.23438
vt 0.39063 0.21875
vt 0.39063 0.01563
vt 0.42969 0.01563
vt 0.42969 0.21875
vt 0.44531 0.20313
vt 0.44531 0.01563
vt 0.51563 0.01563
vt 0.51563 0.20313
vt 0.53125 0.20313
vt 0.53125 0.01563
vt 0.58594 0.01563
vt 0.58594 0.20313
vt 0.60156 0.20313
vt 0.60156 0.01563
vt 0.62500 0.01563
vt 0.62500 0.20313
vt 0.64063 0.18750
vt 0.64063 0.01563
vt 0.64844 0.01563
vt 0.64844 0.18750
vt 0.66406 0.18750
vt 0.66406 0.01563
vt 0.67188 0.01563
vt 0.67188 0.18750
vt 0.68750 0.17188
vt 0.68750 0.01563
vt 0.78906 0.01563
vt 0.78906 0.17188
vt 0.80469 0.17188
vt 0.80469 0.01563
vt 0.83594 0.01563
vt 0.83594 0.17188
vt 0.85156 0.15625
vt 0.85156 0.01563
vt 0.93750 0.01563
vt 0.93750 0.15625
vt 0.95313 0.15625
vt 0.95313 0.01563
vt 0.98438 0.01563
vt 0.98438 0.15625
vt 0.00781 0.54688
vt 0.00781 0.40625
vt 0.01563 0.40625
vt 0.01563 0.54688
vt 0.03125 0.54688
vt 0.03125 0.40625
vt 0.03906 0.40625
vt 0.03906 0.54688
vt 0.05469 0.54688
vt 0.05469 0.40625
vt 0.06250 0.40625
vt 0.06250 0.54688
vt 0.07813 0.54688
vt 0.07813 0.40625
vt 0.08594 0.40625
vt 0.08594 0.54688
vt 0.10156 0.53125
vt 0.10156 0.40625
vt 0.11719 0.40625
vt 0.11719 0.53125
vt 0.13281 0.53125
vt 0.13281 0.40625
vt 0.14844 0.40625
vt 0.14844 0.53125
vt 0.16406 0.53125
vt 0.16406 0.40625
vt 0.17188 0.40625
vt 0.17188 0.53125
vt 0.18750 0.53125
vt 0.18750 0.40625
vt 0.19531 0.40625
vt 0.19531 0.53125
vt 0.21094 0.51563
vt 0.21094 0.40625
vt 0.23438 0.40625
vt 0.23438 0.51563
vt 0.25000 0.50000
vt 0.25000 0.40625
vt 0.35156 0.40625
vt 0.35156 0.50000
vt 0.36719 0.50000
vt 0.36719 0.40625
vt 0.46875 0.40625
vt 0.46875 0.50000
vt 0.48438 0.50000
vt 0.48438 0.40625
vt 0.50000 0.40625
vt 0.50000 0.50000
vt 0.51563 0.50000
vt 0.51563 0.40625
vt 0.53125 0.40625
vt 0.53125 0.50000
vt 0.54688 0.50000
vt 0.54688 0.40625
vt 0.56250 0.40625
vt 0.56250 0.50000
vt 0.57813 0.50000
vt 0.57813 0.40625
vt 0.59375 0.40625
vt 0.59375 0.50000
vt 0.10156 0.37500
vt 0.10156 0.29688
vt 0.15625 0.29688
vt 0.15625 0.37500
vt 0.17188 0.37500
vt 0.17188 0.29688
vt 0.21094 0.29688
vt 0.21094 0.37500
vt 0.22656 0.37500
vt 0.22656 0.29688
vt 0.25781 0.29688
vt 0.25781 0.37500
vt 0.27344 0.37500
vt 0.27344 0.29688
vt 0.28906 0.29688
vt 0.28906 0.37500
vt 0.30469 0.37500
vt 0.30469 0.29688
vt 0.32031 0.29688
vt 0.32031 0.37500
vt 0.33594 0.37500
vt 0.33594 0.29688
vt 0.35156 0.29688
vt 0.35156 0.37500
vt 0.36719 0.37500
vt 0.36719 0.29688
vt 0.38281 0.29688
vt 0.38281 0.37500
vt 0.39844 0.37500
vt 0.39844 0.29688
vt 0.41406 0.29688
vt 0.41406 0.37500
vt 0.42969 0.37500
vt 0.42969 0.29688
vt 0.44531 0.29688
vt 0.44531 0.37500
vt 0.46094 0.37500
vt 0.46094 0.29688
vt 0.47656 0.29688
vt 0.47656 0.37500
vt 0.49219 0.37500
vt 0.49219 0.29688
vt 0.50781 0.29688
vt 0.50781 0.37500
vt 0.52344 0.37500
vt 0.52344 0.29688
vt 0.53906 0.29688
vt 0.53906 0.37500
vt 0.55469 0.37500
vt 0.55469 0.29688
vt 0.57031 0.29688
vt 0.57031 0.37500
vt 0.58594 0.37500
vt 0.58594 0.29688
vt 0.60156 0.29688
vt 0.60156 0.37500
vt 0.61719 0.35938
vt 0.61719 0.29688
vt 0.69531 0.29688
vt 0.69531 0.35938
vt 0.71094 0.35938
vt 0.71094 0.29688
vt 0.76563 0.29688
vt 0.76563 0.35938
vt 0.78125 0.35938
vt 0.78125 0.29688
vt 0.83594 0.29688
vt 0.83594 0.35938
vt 0.85156 0.35938
vt 0.85156 0.29688
vt 0.89063 0.29688
vt 0.89063 0.35938
vt 0.90625 0.35938
vt 0.90625 0.29688
vt 0.94531 0.29688
vt 0.94531 0.35938
vt 0.60938 0.46875
vt 0.60938 0.40625
vt 0.64844 0.40625
vt 0.64844 0.46875
vt 0.96094 0.35938
vt 0.96094 0.29688
vt 0.97656 0.29688
vt 0.97656 0.35938
vt 0.66406 0.46875
vt 0.66406 0.40625
vt 0.67969 0.40625
vt 0.67969 0.46875
vt 0.69531 0.46875
vt 0.69531 0.40625
vt 0.70313 0.40625
vt 0.70313 0.46875
vt 0.71875 0.46875
vt 0.71875 0.40625
vt 0.72656 0.40625
vt 0.72656 0.46875
vt 0.74219 0.46875
vt 0.74219 0.40625
vt 0.75000 0.40625
vt 0.75000 0.46875
vt 0.76563 0.45313
vt 0.76563 0.40625
vt 0.85938 0.40625
vt 0.85938 0.45313
vt 0.87500 0.43750
vt 0.87500 0.40625
vt 0.97656 0.40625
vt 0.97656 0.43750
vt 0.00781 0.60938
vt 0.00781 0.57813
vt 0.10938 0.57813
vt 0.10938 0.60938
vt 0.12500 0.60938
vt 0.12500 0.57813
vt 0.22656 0.57813
vt 0.22656 0.60938
vt 0.24219 0.60938
vt 0.24219 0.57813
vt 0.34375 0.57813
vt 0.34375 0.60938
vt 0.35938 0.60938
vt 0.35938 0.57813
vt 0.41406 0.57813
vt 0.41406 0.60938
vt 0.42969 0.60938
vt 0.42969 0.57813
vt 0.48438 0.57813
vt 0.48438 0.60938
vt 0.50000 0.60938
vt 0.50000 0.57813
vt 0.55469 0.57813
vt 0.55469 0.60938
vt 0.57031 0.60938
vt 0.57031 0.57813
vt 0.62500 0.57813
vt 0.62500 0.60938
vt 0.64063 0.60938
vt 0.64063 0.57813
vt 0.69531 0.57813
vt 0.69531 0.60938
vt 0.71094 0.60938
vt 0.71094 0.57813
vt 0.76563 0.57813
vt 0.76563 0.60938
vt 0.78125 0.60938
vt 0.78125 0.57813
vt 0.83594 0.57813
vt 0.83594 0.60938
vt 0.85156 0.60938
vt 0.85156 0.57813
vt 0.90625 0.57813
vt 0.90625 0.60938
vt 0.92188 0.60938
vt 0.92188 0.57813
vt 0.97656 0.57813
vt 0.97656 0.60938
vt 0.00781 0.67188
vt 0.00781 0.64063
vt 0.06250 0.64063
vt 0.06250 0.67188
vt 0.07813 0.67188
vt 0.07813 0.64063
vt 0.13281 0.64063
vt 0.13281 0.67188
vt 0.14844 0.67188
vt 0.14844 0.64063
vt 0.19531 0.64063
vt 0.19531 0.67188
vt 0.21094 0.67188
vt 0.21094 0.64063
vt 0.25781 0.64063
vt 0.25781 0.67188
vt 0.27344 0.67188
vt 0.27344 0.64063
vt 0.32031 0.64063
vt 0.32031 0.67188
vt 0.33594 0.67188
vt 0.33594 0.64063
vt 0.38281 0.64063
vt 0.38281 0.67188
vt 0.39844 0.67188
vt 0.39844 0.64063
vt 0.42969 0.64063
vt 0.42969 0.67188
vt 0.44531 0.67188
vt 0.44531 0.64063
vt 0.47656 0.64063
vt 0.47656 0.67188
vt 0.49219 0.67188
vt 0.49219 0.64063
vt 0.52344 0.64063
vt 0.52344 0.67188
vt 0.53906 0.67188
vt 0.53906 0.64063
vt 0.57031 0.64063
vt 0.57031 0.67188
vt 0.58594 0.67188
vt 0.58594 0.64063
vt 0.60938 0.64063
vt 0.60938 0.67188
vt 0.62500 0.67188
vt 0.62500 0.64063
vt 0.64844 0.64063
vt 0.64844 0.67188
vt 0.66406 0.67188
vt 0.66406 0.64063
vt 0.68750 0.64063
vt 0.68750 0.67188
vt 0.70313 0.67188
vt 0.70313 0.64063
vt 0.72656 0.64063
vt 0.72656 0.67188
vt 0.74219 0.67188
vt 0.74219 0.64063
vt 0.75781 0.64063
vt 0.75781 0.67188
vt 0.77344 0.67188
vt 0.77344 0.64063
vt 0.78906 0.64063
vt 0.78906 0.67188
vt 0.80469 0.67188
vt 0.80469 0.64063
vt 0.82031 0.64063
vt 0.82031 0.67188
vt 0.83594 0.67188
vt 0.83594 0.64063
vt 0.85156 0.64063
vt 0.85156 0.67188
vt 0.86719 0.67188
vt 0.86719 0.64063
vt 0.88281 0.64063
vt 0.88281 0.67188
vt 0.89844 0.67188
vt 0.89844 0.64063
vt 0.91406 0.64063
vt 0.91406 0.67188
vt 0.92969 0.67188
vt 0.92969 0.64063
vt 0.94531 0.64063
vt 0.94531 0.67188
vt 0.96094 0.67188
vt 0.96094 0.64063
vt 0.96875 0.64063
vt 0.96875 0.67188
vt 0.98438 0.67188
vt 0.98438 0.64063
vt 0.99219 0.64063
vt 0.99219 0.67188
vt 0.00781 0.71875
vt 0.00781 0.70313
vt 0.14844 0.70313
vt 0.14844 0.71875
vt 0.16406 0.71875
vt 0.16406 0.70313
vt 0.27344 0.70313
vt 0.27344 0.71875
vt 0.28906 0.71875
vt 0.28906 0.70313
vt 0.39844 0.70313
vt 0.39844 0.71875
vt 0.41406 0.71875
vt 0.41406 0.70313
vt 0.51563 0.70313
vt 0.51563 0.71875
vt 0.53125 0.71875
vt 0.53125 0.70313
vt 0.60938 0.70313
vt 0.60938 0.71875
vt 0.62500 0.71875
vt 0.62500 0.70313
vt 0.68750 0.70313
vt 0.68750 0.71875
vt 0.70313 0.71875
vt 0.70313 0.70313
vt 0.73438 0.70313
vt 0.73438 0.71875
vt 0.75000 0.71875
vt 0.75000 0.70313
vt 0.78125 0.70313
vt 0.78125 0.71875
vt 0.79688 0.71875
vt 0.79688 0.70313
vt 0.81250 0.70313
vt 0.81250 0.71875

g Matrix
usemtl chiken_Material
f  1/97/2 2/98/2 3/99/2 4/100/2
f  5/13/2 6/14/2 7/15/2 8/16/2
f  8/5/2 9/6/2 10/7/2 11/8/2
f  12/181/2 13/182/2 14/183/2 15/184/2
f  16/77/2 17/78/2 18/79/2 19/80/2
f  20/273/2 21/274/2 22/275/2 23/276/2
f  24/249/2 25/250/2 26/251/2 27/252/2
f  28/377/2 29/378/2 9/379/2 30/380/2
f  31/161/2 32/162/2 33/163/2 34/164/2
f  35/149/2 36/150/2 37/151/2 38/152/2
f  39/61/2 40/62/2 41/63/2 42/64/2
f  19/201/2 43/202/2 44/203/2 45/204/2
f  46/325/2 47/326/2 48/327/2 49/328/2
f  50/321/2 51/322/2 52/323/2 53/324/2
f  54/301/2 55/302/2 6/303/2 56/304/2
f  57/89/2 28/90/2 58/91/2 54/92/2
f  59/397/2 16/398/2 45/399/2 60/400/2
f  61/101/1 62/102/1 63/103/1 64/104/1
f  65/9/1 66/10/1 67/11/1 68/12/1
f  69/1/1 70/2/1 71/3/1 65/4/1
f  72/185/1 73/186/1 74/187/1 75/188/1
f  76/81/1 77/82/1 78/83/1 79/84/1
f  80/261/1 81/262/1 82/263/1 83/264/1
f  84/265/1 85/266/1 86/267/1 87/268/1
f  88/373/1 71/374/1 89/375/1 90/376/1
f  91/153/1 92/154/1 93/155/1 94/156/1
f  95/157/1 96/158/1 97/159/1 98/160/1
f  99/73/1 100/74/1 101/75/1 102/76/1
f  103/205/1 104/206/1 105/207/1 76/208/1
f  106/317/1 107/318/1 108/319/1 109/320/1
f  110/329/1 111/330/1 112/331/1 113/332/1
f  114/305/1 67/306/1 115/307/1 116/308/1
f  116/85/1 117/86/1 90/87/1 118/88/1
f  119/393/1 103/394/1 79/395/1 120/396/1
f  121/45/3 10/46/3 70/47/3 122/48/3
f  60/125/3 44/126/3 104/127/3 119/128/3
f  123/49/3 121/50/3 17/51/3 124/52/3
f  120/57/3 78/58/3 122/59/3 125/60/3
f  11/221/3 123/222/3 126/223/3 127/224/3
f  43/197/3 18/198/3 77/199/3 105/200/3
f  15/189/3 14/190/3 73/191/3 72/192/3
f  4/105/3 3/106/3 30/107/3 7/108/3
f  66/109/3 88/110/3 62/111/3 61/112/3
f  34/141/3 33/142/3 92/143/3 91/144/3
f  38/137/3 37/138/3 96/139/3 95/140/3
f  124/389/3 59/390/3 128/391/3 126/392/3
f  127/209/3 128/210/3 125/211/3 69/212/3
f  23/357/3 22/358/3 107/359/3 106/360/3
f  49/353/3 48/354/3 81/355/3 80/356/3
f  27/337/3 26/338/3 111/339/3 110/340/3
f  53/333/3 52/334/3 85/335/3 84/336/3
f  109/341/3 108/342/3 47/343/3 46/344/3
f  113/349/3 112/350/3 51/351/3 50/352/3
f  68/17/4 114/18/4 56/19/4 5/20/4
f  102/53/4 101/54/4 40/55/4 39/56/4
f  75/193/4 74/194/4 13/195/4 12/196/4
f  94/145/4 93/146/4 32/147/4 31/148/4
f  98/133/4 97/134/4 36/135/4 35/136/4
f  83/289/4 82/290/4 21/291/4 20/292/4
f  87/285/4 86/286/4 25/287/4 24/288/4
f  55/117/4 58/118/4 2/119/4 1/120/4
f  64/113/4 63/114/4 117/115/4 115/116/4
f  42/69/4 41/70/4 29/71/4 57/72/4
f  118/65/4 89/66/4 100/67/4 99/68/4
f  56/21/5 114/22/5 118/23/5 57/24/5
f  11/33/5 127/34/5 129/35/5 130/36/5
f  130/177/5 14/178/5 131/179/5 5/180/5
f  15/121/5 72/122/5 75/123/5 12/124/5
f  60/129/5 119/130/5 120/131/5 59/132/5
f  4/225/5 7/226/5 55/227/5 1/228/5
f  66/233/5 61/234/5 64/235/5 115/236/5
f  13/93/5 132/94/5 133/95/5 131/96/5
f  127/381/5 69/382/5 68/383/5 134/384/5
f  23/297/5 106/298/5 32/299/5 135/300/5
f  49/241/5 80/242/5 83/243/5 136/244/5
f  27/293/5 110/294/5 36/295/5 137/296/5
f  53/277/5 84/278/5 87/279/5 138/280/5
f  73/281/5 139/282/5 132/283/5 74/284/5
f  139/385/5 129/386/5 134/387/5 133/388/5
f  42/37/5 99/38/5 102/39/5 39/40/5
f  135/213/5 93/214/5 136/215/5 20/216/5
f  137/217/5 97/218/5 138/219/5 24/220/5
f  109/365/5 46/366/5 92/367/5 33/368/5
f  113/361/5 50/362/5 96/363/5 37/364/5
f  140/25/6 141/26/6 29/27/6 100/28/6
f  142/29/6 10/30/6 143/31/6 144/32/6
f  70/369/6 142/370/6 100/371/6 89/372/6
f  30/237/6 3/238/6 2/239/6 58/240/6
f  62/229/6 88/230/6 117/231/6 63/232/6
f  104/165/6 44/166/6 43/167/6 105/168/6
f  77/173/6 18/174/6 17/175/6 78/176/6
f  107/245/6 22/246/6 21/247/6 145/248/6
f  81/253/6 48/254/6 146/255/6 82/256/6
f  111/269/6 26/270/6 25/271/6 147/272/6
f  85/257/6 52/258/6 148/259/6 86/260/6
f  38/169/6 91/170/6 94/171/6 35/172/6
f  100/41/6 41/42/6 40/43/6 101/44/6
f  47/313/6 108/314/6 145/315/6 146/316/6
f  51/309/6 112/310/6 147/311/6 148/312/6
f  34/345/6 143/346/6 141/347/6 31/348/6
f  144/401/6 95/402/6 98/403/6 140/404/6
